<svg width="19" height="19" viewBox="0 0 19 19" fill="none" xmlns="http://www.w3.org/2000/svg">
<path d="M6.24214 6.18189C5.16901 7.09373 4.77576 8.75671 5.70237 10.0908C6.56948 11.3392 7.66175 12.4313 8.9099 13.298C10.2441 14.2244 11.907 13.8311 12.8187 12.7579L12.8289 12.7626C13.9934 13.3021 15.2304 13.6718 16.5 13.8603V16.5L16.4989 16.5L16.4961 16.5C8.52151 16.5113 2.49148 10.4111 2.50001 2.50359V2.5H5.13937L5.13954 2.50117C5.328 3.77065 5.69761 5.00654 6.23714 6.17108L6.24214 6.18189ZM16.4989 18.5H17.5C18.0523 18.5 18.5 18.0523 18.5 17.5V12.9977C18.5 12.5021 18.137 12.0813 17.6468 12.0086L16.7926 11.8818C15.7123 11.7215 14.6605 11.4069 13.6695 10.9478L12.9166 10.5991C12.4804 10.397 11.962 10.534 11.6826 10.9253L11.3418 11.4024C11.0431 11.8206 10.4728 11.9484 10.0506 11.6552C8.99835 10.9245 8.07607 10.0024 7.34502 8.94989C7.05181 8.52774 7.17955 7.95737 7.59783 7.65866L8.07477 7.31807C8.46609 7.03861 8.60311 6.52021 8.40097 6.0839L8.05184 5.33033C7.59274 4.3394 7.27823 3.28774 7.11786 2.20749L6.99104 1.35316C6.91827 0.862959 6.49745 0.5 6.00188 0.5H1.50001C0.947726 0.5 0.50001 0.947715 0.50001 1.5V2.50143C0.490291 11.5079 7.41023 18.5129 16.4989 18.5Z" fill="#FD3EAF"/>
</svg>
