<svg width="100" height="101" viewBox="0 0 100 101" fill="none" xmlns="http://www.w3.org/2000/svg">
<path d="M69.0687 84.1538L45.0395 60.1288C36.0554 66.0555 24.0437 64.2221 17.2367 55.8853C10.4297 47.5484 11.0357 35.4127 18.6395 27.7955C26.2554 20.1888 38.3924 19.5801 46.7311 26.3867C55.0699 33.1932 56.9043 45.2063 50.977 54.1913L74.9978 78.2205L69.0687 84.1538ZM33.4728 30.0454C27.4697 30.0416 22.2998 34.2789 21.1249 40.1659C19.9499 46.0529 23.097 51.9501 28.6417 54.2511C34.1863 56.5521 40.5842 54.6159 43.9228 49.6268C47.2613 44.6376 46.6106 37.9849 42.3687 33.7371C40.0155 31.3677 36.8122 30.0384 33.4728 30.0454ZM79.1645 46.6538H70.8312V38.3205H62.4978V29.9871H70.8312V21.6538H79.1645V29.9871H87.4978V38.3205H79.1645V46.6538Z" fill="white"/>
</svg>
